<?xml version="1.0" encoding="UTF-8"?>
<svg width="34px" height="34px" viewBox="0 0 34 34" version="1.1" xmlns="http://www.w3.org/2000/svg" xmlns:xlink="http://www.w3.org/1999/xlink">
    <title>11EC555E-C8BB-433D-BC21-B02FEAB77D9B</title>
    <g id="Page-1" stroke="none" stroke-width="1" fill="none" fill-rule="evenodd">
        <g id="Testing_Site_Desktop" transform="translate(-1316.000000, -2073.000000)" fill="#FFFFFF" fill-rule="nonzero">
            <g id="Footer_Desktop" transform="translate(0.000000, 1771.000000)">
                <g id="Footer">
                    <g id="Follow-Us" transform="translate(1099.000000, 302.000000)">
                        <g id="Social-Icon" transform="translate(106.000000, 0.000000)">
                            <g id="IG_Icon_Red" transform="translate(111.000000, 0.000000)">
                                <g id="instagram">
                                    <path d="M20.2539062,17 C20.2539062,18.7971191 18.7971191,20.2539062 17,20.2539062 C15.2028809,20.2539062 13.7460938,18.7971191 13.7460938,17 C13.7460938,15.2028809 15.2028809,13.7460938 17,13.7460938 C18.7971191,13.7460938 20.2539062,15.2028809 20.2539062,17 Z" id="Path"></path>
                                    <path d="M24.6097412,11.2428894 C24.4533233,10.8190308 24.2037811,10.435379 23.8795318,10.1204682 C23.564621,9.79621886 23.1812286,9.54667665 22.7571106,9.39025879 C22.413147,9.25666807 21.8964233,9.09765625 20.9446869,9.05433653 C19.9151306,9.00738525 19.6064453,8.99726866 17,8.99726866 C14.3932953,8.99726866 14.08461,9.00712587 13.0553131,9.05407715 C12.1035767,9.09765625 11.5865936,9.25666807 11.2428894,9.39025879 C10.8187714,9.54667665 10.4351196,9.79621886 10.1204682,10.1204682 C9.79621886,10.435379 9.54667665,10.8187714 9.38999941,11.2428894 C9.25640869,11.586853 9.09739687,12.103836 9.05407715,13.0555725 C9.00712587,14.0848694 8.99700928,14.3935547 8.99700928,17.0002594 C8.99700928,19.6067047 9.00712587,19.91539 9.05407715,20.9449463 C9.09739687,21.8966827 9.25640869,22.4134064 9.38999941,22.75737 C9.54667665,23.1814881 9.79595947,23.5648804 10.1202088,23.8797912 C10.4351196,24.2040405 10.8185119,24.4535828 11.24263,24.6100006 C11.5865936,24.7438507 12.1035767,24.9028625 13.0553131,24.9461822 C14.08461,24.9931336 14.3930359,25.0029907 16.9997406,25.0029907 C19.6067047,25.0029907 19.91539,24.9931336 20.9444275,24.9461822 C21.896164,24.9028625 22.413147,24.7438507 22.7571106,24.6100006 C23.6084595,24.281601 24.2813416,23.6087189 24.6097412,22.75737 C24.7433319,22.4134064 24.9023438,21.8966827 24.9459229,20.9449463 C24.9928741,19.91539 25.0027313,19.6067047 25.0027313,17.0002594 C25.0027313,14.3935547 24.9928741,14.0848694 24.9459229,13.0555725 C24.9026031,12.103836 24.7435913,11.586853 24.6097412,11.2428894 L24.6097412,11.2428894 Z M17,22.0126343 C14.2314301,22.0126343 11.9871063,19.7685699 11.9871063,17 C11.9871063,14.2314301 14.2314301,11.9873657 17,11.9873657 C19.7683105,11.9873657 22.0126343,14.2314301 22.0126343,17 C22.0126343,19.7685699 19.7683105,22.0126343 17,22.0126343 Z M22.2108154,12.9606323 C21.5638733,12.9606323 21.0393677,12.4361267 21.0393677,11.7891846 C21.0393677,11.1422424 21.5638733,10.6177368 22.2108154,10.6177368 C22.8577576,10.6177368 23.3822632,11.1422424 23.3822632,11.7891846 C23.3820038,12.4361267 22.8577576,12.9606323 22.2108154,12.9606323 Z" id="Shape"></path>
                                    <path d="M17,0 C7.61259462,0 0,7.61259462 0,17 C0,26.3874054 7.61259462,34 17,34 C26.3874054,34 34,26.3874054 34,17 C34,7.61259462 26.3874054,0 17,0 Z M26.7028351,21.0245819 C26.6556244,22.0637359 26.4903869,22.7731934 26.2491455,23.3941955 C25.7420196,24.7054596 24.7054596,25.7420196 23.3941955,26.2491455 C22.7734527,26.4903869 22.0637359,26.655365 21.0248413,26.7028351 C19.9838715,26.7503052 19.6513214,26.7617187 17.0002594,26.7617187 C14.348938,26.7617187 14.0166474,26.7503052 12.9754181,26.7028351 C11.9365234,26.655365 11.2268066,26.4903869 10.6060639,26.2491455 C9.95445253,26.0040131 9.36457823,25.6198426 8.87690733,25.1230927 C8.38041689,24.6356812 7.9962463,24.0455475 7.75111388,23.3941955 C7.50987245,22.7734527 7.34463498,22.0637359 7.29742432,21.0248413 C7.24943544,19.9836121 7.23828125,19.651062 7.23828125,17 C7.23828125,14.348938 7.24943544,14.0163879 7.29716493,12.9754181 C7.34437559,11.9362641 7.50935362,11.2268066 7.75059511,10.6058045 C7.99572754,9.95445253 8.38015744,9.36431885 8.87690733,8.87690733 C9.36431885,8.38015744 9.95445253,7.99598692 10.6058045,7.75085449 C11.2268066,7.50961307 11.9362641,7.34463498 12.9754181,7.29716493 C14.0163879,7.24969482 14.348938,7.23828125 17,7.23828125 C19.651062,7.23828125 19.9836121,7.24969482 21.0245819,7.29742432 C22.0637359,7.34463498 22.7731934,7.50961307 23.3941955,7.75059511 C24.0455475,7.99572754 24.6356812,8.38015744 25.1233521,8.87690733 C25.6198426,9.36457823 26.0042725,9.95445253 26.2491455,10.6058045 C26.4906464,11.2268066 26.6556244,11.9362641 26.7030945,12.9754181 C26.7505646,14.0163879 26.7617187,14.348938 26.7617187,17 C26.7617187,19.651062 26.7505646,19.9836121 26.7028351,21.0245819 L26.7028351,21.0245819 Z" id="Shape"></path>
                                </g>
                            </g>
                        </g>
                    </g>
                </g>
            </g>
        </g>
    </g>
</svg>