<?xml version="1.0" encoding="UTF-8"?>
<svg width="33px" height="34px" viewBox="0 0 33 34" version="1.1" xmlns="http://www.w3.org/2000/svg" xmlns:xlink="http://www.w3.org/1999/xlink">
    <title>82A7E7D0-2131-4B10-BE28-135B376AD431</title>
    <defs>
        <polygon id="path-1" points="0 0 33 0 33 34 0 34"></polygon>
    </defs>
    <g id="Page-1" stroke="none" stroke-width="1" fill="none" fill-rule="evenodd">
        <g id="Testing_Site_Desktop" transform="translate(-1261.000000, -2073.000000)">
            <g id="Footer_Desktop" transform="translate(0.000000, 1771.000000)">
                <g id="Footer">
                    <g id="Follow-Us" transform="translate(1099.000000, 302.000000)">
                        <g id="Social-Icon" transform="translate(106.000000, 0.000000)">
                            <g id="Twitter_Icon_Red" transform="translate(56.000000, 0.000000)">
                                <g id="Twitter_Social_Icon_Circle_Color">
                                    <mask id="mask-2" fill="white">
                                        <use xlink:href="#path-1"></use>
                                    </mask>
                                    <g id="Clip-2"></g>
                                    <path d="M24.787125,13.7768 C24.79455,13.95275 24.798675,14.12955 24.798675,14.30635 C24.798675,19.7217 20.797425,25.96665 13.481325,25.96665 C11.234025,25.96665 9.1443,25.28835 7.38375,24.1264 C7.694775,24.1638 8.011575,24.1825 8.3325,24.1825 C10.196175,24.1825 11.91135,23.528 13.2726,22.42895 C11.53185,22.39495 10.06335,21.21005 9.5568,19.5823 C9.79935,19.6299 10.0485,19.65625 10.305075,19.65625 C10.66725,19.65625 11.019525,19.60525 11.35365,19.51175 C9.5337,19.13605 8.161725,17.4794 8.161725,15.49465 C8.161725,15.47595 8.161725,15.45895 8.16255,15.44195 C8.6988,15.74965 9.311775,15.9341 9.96435,15.9545 C8.8968,15.2201 8.194725,13.9655 8.194725,12.54345 C8.194725,11.7929 8.391075,11.0891 8.73345,10.4839 C10.694475,12.96335 13.626525,14.5945 16.9323,14.76535 C16.863825,14.4653 16.82835,14.1525 16.82835,13.8312 C16.82835,11.5685 18.61035,9.73335 20.807325,9.73335 C21.950775,9.73335 22.9845,10.23145 23.7105,11.0279 C24.61635,10.8443 25.466925,10.5026 26.235825,10.0334 C25.938825,10.98965 25.308525,11.7929 24.486825,12.30035 C25.2912,12.2009 26.05845,11.98075 26.77125,11.6552 C26.2383,12.4763 25.56345,13.1988 24.787125,13.7768 Z M16.5,0 C7.38705,0 0,7.6109 0,17 C0,26.3891 7.38705,34 16.5,34 C25.61295,34 33,26.3891 33,17 C33,7.6109 25.61295,0 16.5,0 L16.5,0 Z" id="Fill-1" fill="#FFFFFF" mask="url(#mask-2)"></path>
                                </g>
                            </g>
                        </g>
                    </g>
                </g>
            </g>
        </g>
    </g>
</svg>