<?xml version="1.0" encoding="UTF-8"?>
<svg width="41px" height="48px" viewBox="0 0 41 48" version="1.1" xmlns="http://www.w3.org/2000/svg" xmlns:xlink="http://www.w3.org/1999/xlink">
    <title>861056D4-06FE-478B-8227-3D92660236F0</title>
    <defs>
        <polygon id="path-1" points="0.00584653689 0.000484807676 4.50972623 0.000484807676 4.50972623 10.5110183 0.00584653689 10.5110183"></polygon>
    </defs>
    <g id="Page-1" stroke="none" stroke-width="1" fill="none" fill-rule="evenodd">
        <g id="Testing_Site_Desktop" transform="translate(-70.000000, -20.000000)">
            <g id="Header">
                <g id="002-robot-head">
                    <g transform="translate(70.000000, 20.000000)">
                        <g>
                            <g id="Group-3" transform="translate(0.000000, 22.018349)">
                                <mask id="mask-2" fill="white">
                                    <use xlink:href="#path-1"></use>
                                </mask>
                                <g id="Clip-2"></g>
                                <path d="M4.45642531,1.30568403 C4.45642531,0.867902702 4.47513422,0.43264237 4.50972623,0.000484807676 L2.67849344,0.000484807676 C1.19941704,0.000484807676 0,1.19398434 0,2.66586045 L0,7.84573958 C0,9.31790657 1.19941704,10.5110183 2.67849344,10.5110183 L4.45642531,10.5110183 L4.45642531,1.30568403 Z" id="Fill-1" fill="#FFFFFF" mask="url(#mask-2)"></path>
                            </g>
                            <path d="M38.2798947,22.0183486 L36.4202128,22.0183486 C36.4553422,22.4529022 36.4742428,22.8905758 36.4742428,23.3307843 L36.4742428,32.587156 L38.2794989,32.587156 C39.7819494,32.587156 41,31.3870393 41,29.9071001 L41,24.698502 C41,23.2184653 39.7819494,22.0183486 38.2798947,22.0183486 Z" id="Fill-4" fill="#FFFFFF"></path>
                            <path d="M34.4574468,38.9724771 L34.4574468,23.2801981 C34.4574468,22.8425147 34.4370086,22.4094468 34.3983601,21.9821728 C33.8036183,15.3516186 28.6978472,10.0430507 22.217777,9.23671952 L22.217777,6.59372875 C23.269327,5.98723729 23.9791426,4.8414241 23.9791426,3.52719561 C23.9791426,1.5792739 22.4213841,0 20.5,0 C18.5786159,0 17.0208574,1.5792739 17.0208574,3.52719561 C17.0208574,4.8414241 17.730673,5.98723729 18.782223,6.59372875 L18.782223,9.23671952 C12.3003124,10.0433453 7.19376639,15.3546628 6.60125246,21.9874757 C6.56299139,22.4132767 6.54255319,22.8444787 6.54255319,23.2801981 L6.54255319,38.9720843 L14.2507555,38.9720843 L14.2507555,35.9658467 C14.2507555,35.1096293 14.9352897,34.4153458 15.7797456,34.4153458 L25.2197701,34.4153458 C26.0643228,34.4153458 26.7492445,35.1096293 26.7492445,35.9658467 L26.7492445,38.9720843 L34.4574468,38.9724771 Z M13.7695377,30.4075529 C11.6721527,30.4075529 9.9718111,28.6836284 9.9718111,26.5572749 C9.9718111,24.4310195 11.6721527,22.7070951 13.7695377,22.7070951 C15.8668259,22.7070951 17.5672643,24.4310195 17.5672643,26.5572749 C17.5672643,28.6836284 15.8668259,30.4075529 13.7695377,30.4075529 Z M23.9791426,26.5572749 C23.9791426,24.4310195 25.6795811,22.7070951 27.7768692,22.7070951 C29.8741574,22.7070951 31.5745958,24.4310195 31.5745958,26.5572749 C31.5745958,28.6836284 29.8741574,30.4075529 27.7768692,30.4075529 C25.6791936,30.4075529 23.9791426,28.6836284 23.9791426,26.5572749 Z" id="Fill-5" fill="#FFFFFF"></path>
                            <path d="M36.6528568,40.9541284 L4.12944704,40.9541284 C3.41461689,40.9541284 2.83510638,41.5394584 2.83510638,42.2613687 L2.83510638,46.6926615 C2.83510638,47.41467 3.41461689,48 4.12944704,48 L36.6528568,48 C37.3676869,48 37.9468085,47.41467 37.9468085,46.6926615 L37.9468085,42.2613687 C37.9471974,41.5394584 37.3676869,40.9541284 36.6528568,40.9541284 Z" id="Fill-6" fill="#FFFFFF"></path>
                        </g>
                    </g>
                </g>
            </g>
        </g>
    </g>
</svg>